<svg xmlns="http://www.w3.org/2000/svg" viewBox="0 0 999.97 1000"><path d="M333.38 500A166.7 166.7 0 0 1 500 333.28h0A166.71 166.71 0 1 1 333.38 500zm-90.12 0c0 141.79 115 256.76 256.76 256.76S756.77 641.77 756.77 500 641.81 243.23 500 243.23 243.26 358.19 243.26 500zm463.65-267a60.37 60.37 0 0 0 60 60h0a60 60 0 1 0-60-60zM298 907c-48.76-2.23-75.24-10.35-92.84-17.23a155.6 155.6 0 0 1-57.51-37.4c-17.54-17.47-28.37-34.1-37.4-57.38-6.88-17.61-15-44.09-17.23-92.85-2.42-52.71-2.92-68.52-2.92-202.06L93 298c2.23-48.76 10.39-75.21 17.23-92.84 9.09-23.37 19.89-40 37.4-57.51s34.1-28.37 57.51-37.4c17.6-6.87 44.08-15 92.84-17.23 52.72-2.41 68.65-2.92 202-2.92l202.1 2.9c48.76 2.23 75.21 10.39 92.84 17.23a154.57 154.57 0 0 1 57.52 37.4 155.39 155.39 0 0 1 37 56.44l.35 1.07c6.87 17.63 15 44.12 17.22 92.84 2.42 52.78 2.89 68.66 2.89 202.07l-2.89 202.06c-2.22 48.76-10.38 75.24-17.22 92.85-9.1 23.34-19.9 40-37.4 57.38a155.84 155.84 0 0 1-57.52 37.4c-17.63 6.88-44.11 15-92.84 17.23-52.71 2.42-68.65 2.92-202.06 2.92S350.69 909.45 298 907zM293.87 3c-53.24 2.42-89.58 10.86-121.36 23.22A246.65 246.65 0 0 0 84 83.87h0c-27.9 27.83-45 55.69-57.74 88.61C13.9 204.26 5.46 240.59 3 293.84S0 364.19 0 500l3 206.13c2.42 53.21 10.86 89.58 23.22 121.36C39 860.37 56.1 888.27 83.93 916.07a245.37 245.37 0 0 0 88.58 57.67c31.85 12.36 68.12 20.8 121.36 23.22s70.35 3 206.15 3 152.83-.56 206.14-3 89.58-10.86 121.36-23.22a255.58 255.58 0 0 0 146.25-146.25c12.36-31.78 20.83-68.12 23.22-121.36s3-70.38 3-206.15l-3-206.14c-2.42-53.25-10.86-89.58-23.22-121.36A246.15 246.15 0 0 0 916.1 83.9a245.17 245.17 0 0 0-88.55-57.67C795.74 13.87 759.37 5.4 706.19 3s-70.35-3-206.14-3-152.84.56-206.18 3z"/></svg>