<svg xmlns="http://www.w3.org/2000/svg" viewBox="0 0 1007 1000" fill-rule="evenodd" stroke-linejoin="round" stroke-miterlimit="2"><path d="M503.477.09C227.7.09 3.93 223.767 3.93 499.637c0 211.757 131.552 392.649 317.4 465.42-4.517-39.459-8.218-100.311 1.631-143.503l58.405-248.33s-14.805-30.018-14.805-74.026c0-69.477 40.275-121.295 90.461-121.295 42.753 0 63.299 32.057 63.299 70.293 0 42.753-27.133 106.898-41.499 166.526-11.919 49.748 25.094 90.462 73.995 90.462 88.83 0 157.053-93.756 157.053-228.601 0-119.664-85.945-203.131-208.871-203.131-142.249 0-225.715 106.49-225.715 216.681 0 42.753 16.436 88.799 37.012 113.893 4.078 4.924 4.517 9.441 3.294 14.397l-13.99 56.743c-2.039 9.033-7.402 11.103-16.844 6.587-62.482-29.203-101.565-120.072-101.565-193.659 0-157.492 114.3-302.187 330.166-302.187 173.113 0 307.928 123.365 307.928 288.637 0 172.266-108.529 310.813-259.027 310.813-50.689 0-98.272-26.317-114.3-57.558l-31.242 118.817c-11.104 43.569-41.498 97.833-62.075 131.176A500.93 500.93 0 0 0 502.661 1000c275.777 0 499.547-223.677 499.547-499.547C1003.024 223.735 779.379.09 503.477.09V.059.09z" fill-rule="nonzero"/></svg>