<svg xmlns="http://www.w3.org/2000/svg" viewBox="0 0 1000 1000" fill-rule="evenodd" stroke-linejoin="round" stroke-miterlimit="2"><path d="M855.476 33.407H144.454c-60.876.117-110.932 50.174-111.049 111.049v711.088c.112 60.877 50.171 110.937 111.049 111.049h711.022c60.876-.117 110.932-50.174 111.049-111.049V144.456c-.117-60.875-50.173-110.932-111.049-111.049zm-88.718 407.14c-4.572.466-9.901.765-15.285.765-55.844.01-108.101-28.076-138.905-74.655l-.383-.616V622.35c0 103.91-85.526 189.437-189.437 189.437S233.312 726.26 233.312 622.35s85.526-189.437 189.436-189.437c3.957 0 7.821.355 11.712.588v93.365a97.66 97.66 0 0 0-11.712-1.175c-53.056 0-96.715 43.659-96.715 96.715s43.659 96.715 96.715 96.715c53.407 0 100.579-42.077 100.579-95.511l.934-435.341h89.305c8.81 79.576 73.508 142.254 153.323 148.535v103.771l-.131-.028z" fill-rule="nonzero"/></svg>